<svg viewBox="0 0 96 96" xml:space="preserve" xmlns="http://www.w3.org/2000/svg"><path d="M27 75h42v6H27zM27 63h42v6H27zM66 43c0-4.881-2.934-9.083-7.127-10.956A11.902 11.902 0 0 0 60 27c0-6.617-5.383-12-12-12s-12 5.383-12 12c0 1.803.411 3.508 1.127 5.044C32.934 33.917 30 38.119 30 43v14h36V43zM48 21c3.309 0 6 2.691 6 6s-2.691 6-6 6-6-2.691-6-6 2.691-6 6-6zm12 30H36v-8a6.006 6.006 0 0 1 5.429-5.971C43.318 38.271 45.574 39 48 39s4.682-.729 6.571-1.971A6.006 6.006 0 0 1 60 43v8z" fill="#ffffff" class="fill-000000"></path><path d="M79.5 3h-63a3 3 0 0 0-3 3v84a3 3 0 0 0 3 3h63a3 3 0 0 0 3-3V6a3 3 0 0 0-3-3zm-3 84h-57V9h57v78z" fill="#ffffff" class="fill-000000"></path></svg>